<svg width="16" height="16" viewBox="0 0 16 16" fill="none" xmlns="http://www.w3.org/2000/svg">
<path d="M14.2223 11.6053V7.55882C14.2223 4.72029 12.2801 2.32912 9.64895 1.61C9.3885 0.958823 8.75206 0.5 8.00006 0.5C7.24806 0.5 6.61162 0.958823 6.35117 1.61C3.72006 2.33 1.77784 4.72029 1.77784 7.55882V11.6053L0.260506 13.1115C0.177802 13.1933 0.112213 13.2905 0.0675147 13.3976C0.0228167 13.5046 -0.000107364 13.6194 6.19664e-05 13.7353V14.6176C6.19664e-05 14.8517 0.0937124 15.0761 0.260411 15.2416C0.42711 15.407 0.653203 15.5 0.888951 15.5H15.1112C15.3469 15.5 15.573 15.407 15.7397 15.2416C15.9064 15.0761 16.0001 14.8517 16.0001 14.6176V13.7353C16.0002 13.6194 15.9773 13.5046 15.9326 13.3976C15.8879 13.2905 15.8223 13.1933 15.7396 13.1115L14.2223 11.6053Z" fill="white"/>
</svg>
